<svg xmlns="http://www.w3.org/2000/svg" width="1280" height="760" viewBox="0 0 1280 760">
  <rect width="1280" height="760" fill="#f4f7fb"/>
  <text x="70" y="86" fill="#2458d3" font-family="Arial, sans-serif" font-size="16" font-weight="700">DEVELOPER MONITORING WORKSPACE</text>
  <text x="70" y="150" fill="#172033" font-family="Arial, sans-serif" font-size="70" font-weight="800">PingVista</text>
  <text x="72" y="195" fill="#647085" font-family="Arial, sans-serif" font-size="24">Monitor API health, validate responses, track incidents, and manage environments.</text>
  <rect x="70" y="235" width="260" height="95" rx="10" fill="#ffffff" stroke="#dce4ef"/>
  <rect x="350" y="235" width="260" height="95" rx="10" fill="#ffffff" stroke="#dce4ef"/>
  <rect x="630" y="235" width="260" height="95" rx="10" fill="#ffffff" stroke="#dce4ef"/>
  <rect x="910" y="235" width="260" height="95" rx="10" fill="#ffffff" stroke="#dce4ef"/>
  <text x="95" y="276" fill="#647085" font-family="Arial, sans-serif" font-size="16" font-weight="700">TRACKED APIS</text>
  <text x="95" y="315" fill="#172033" font-family="Arial, sans-serif" font-size="38" font-weight="800">2</text>
  <text x="375" y="276" fill="#647085" font-family="Arial, sans-serif" font-size="16" font-weight="700">HEALTHY</text>
  <text x="375" y="315" fill="#0f8a5f" font-family="Arial, sans-serif" font-size="38" font-weight="800">2</text>
  <text x="655" y="276" fill="#647085" font-family="Arial, sans-serif" font-size="16" font-weight="700">AVG LATENCY</text>
  <text x="655" y="315" fill="#172033" font-family="Arial, sans-serif" font-size="38" font-weight="800">246 ms</text>
  <text x="935" y="276" fill="#647085" font-family="Arial, sans-serif" font-size="16" font-weight="700">OPEN INCIDENTS</text>
  <text x="935" y="315" fill="#c93636" font-family="Arial, sans-serif" font-size="38" font-weight="800">0</text>
  <rect x="70" y="370" width="350" height="300" rx="10" fill="#ffffff" stroke="#dce4ef"/>
  <text x="100" y="420" fill="#172033" font-family="Arial, sans-serif" font-size="25" font-weight="800">Add endpoint</text>
  <rect x="100" y="450" width="290" height="42" rx="8" fill="#f4f7fb" stroke="#dce4ef"/>
  <rect x="100" y="510" width="290" height="42" rx="8" fill="#f4f7fb" stroke="#dce4ef"/>
  <rect x="100" y="580" width="290" height="48" rx="8" fill="#2458d3"/>
  <text x="188" y="611" fill="#ffffff" font-family="Arial, sans-serif" font-size="18" font-weight="800">Add endpoint</text>
  <rect x="450" y="370" width="730" height="300" rx="10" fill="#ffffff" stroke="#dce4ef"/>
  <text x="485" y="420" fill="#172033" font-family="Arial, sans-serif" font-size="25" font-weight="800">Live endpoints</text>
  <rect x="485" y="455" width="310" height="170" rx="10" fill="#f8fafc" stroke="#dce4ef"/>
  <rect x="830" y="455" width="310" height="170" rx="10" fill="#f8fafc" stroke="#dce4ef"/>
  <text x="510" y="495" fill="#172033" font-family="Arial, sans-serif" font-size="22" font-weight="800">GitHub API</text>
  <text x="855" y="495" fill="#172033" font-family="Arial, sans-serif" font-size="22" font-weight="800">JSONPlaceholder</text>
  <path d="M510 575h45l25-55 42 78 32-45h60" fill="none" stroke="#2458d3" stroke-width="5" stroke-linecap="round" stroke-linejoin="round"/>
  <path d="M855 575h45l25-42 42 68 32-36h60" fill="none" stroke="#0f8a5f" stroke-width="5" stroke-linecap="round" stroke-linejoin="round"/>
</svg>
